<svg width="200" height="200" xmlns="http://www.w3.org/2000/svg">
  <!-- Top-left square with larger rounded top-left corner -->
  <path d="M 0 40 Q 0 0 40 0 L 50 0 L 50 50 L 0 50 Z" fill="rgb(45,45,45)" />

  <!-- Other squares in the first row -->
  <rect x="50" y="0" width="50" height="50" fill="rgb(120,120,120)" />
  <rect x="100" y="0" width="50" height="50" fill="rgb(200,200,200)" />
  <rect x="150" y="0" width="50" height="50" fill="rgb(90,90,90)" />
  
  <!-- Second row -->
  <rect x="0" y="50" width="50" height="50" fill="rgb(160,160,160)" />
  <rect x="50" y="50" width="50" height="50" fill="rgb(80,80,80)" />
  <rect x="100" y="50" width="50" height="50" fill="rgb(220,220,220)" />
  <rect x="150" y="50" width="50" height="50" fill="rgb(50,50,50)" />
  
  <!-- Third row -->
  <rect x="0" y="100" width="50" height="50" fill="rgb(30,30,30)" />
  <rect x="50" y="100" width="50" height="50" fill="rgb(190,190,190)" />
  <rect x="100" y="100" width="50" height="50" fill="rgb(70,70,70)" />
  <rect x="150" y="100" width="50" height="50" fill="rgb(140,140,140)" />
  
  <!-- Fourth row -->
  <rect x="0" y="150" width="50" height="50" fill="rgb(110,110,110)" />
  <rect x="50" y="150" width="50" height="50" fill="rgb(170,170,170)" />
  <rect x="100" y="150" width="50" height="50" fill="rgb(100,100,100)" />

  <!-- Bottom-right square with larger rounded bottom-right corner -->
  <path d="M 150 150 L 200 150 Q 200 200 150 200 L 150 150 Z" fill="rgb(60,60,60)" />
</svg>
